<svg width="215" height="56" viewBox="0 0 215 56" fill="none" xmlns="http://www.w3.org/2000/svg">
<path d="M62.494 19V6.4H65.41V16.624H71.728V19H62.494ZM73.3749 19V6.4H76.2909V19H73.3749ZM79.2811 19V6.4H81.6931L89.1271 15.472H87.9571V6.4H90.8371V19H88.4431L80.9911 9.928H82.1611V19H79.2811ZM96.4282 16.12L96.2662 12.754L102.296 6.4H105.536L100.1 12.25L98.4802 13.978L96.4282 16.12ZM93.8182 19V6.4H96.7162V19H93.8182ZM102.44 19L97.9582 13.51L99.8662 11.44L105.842 19H102.44ZM112.24 19V6.4H118.396C119.98 6.4 121.168 6.7 121.96 7.3C122.764 7.9 123.166 8.692 123.166 9.676C123.166 10.336 123.004 10.912 122.68 11.404C122.356 11.884 121.912 12.256 121.348 12.52C120.784 12.784 120.136 12.916 119.404 12.916L119.746 12.178C120.538 12.178 121.24 12.31 121.852 12.574C122.464 12.826 122.938 13.204 123.274 13.708C123.622 14.212 123.796 14.83 123.796 15.562C123.796 16.642 123.37 17.488 122.518 18.1C121.666 18.7 120.412 19 118.756 19H112.24ZM115.138 16.804H118.54C119.296 16.804 119.866 16.684 120.25 16.444C120.646 16.192 120.844 15.796 120.844 15.256C120.844 14.728 120.646 14.338 120.25 14.086C119.866 13.822 119.296 13.69 118.54 13.69H114.922V11.566H118.036C118.744 11.566 119.284 11.446 119.656 11.206C120.04 10.954 120.232 10.576 120.232 10.072C120.232 9.58 120.04 9.214 119.656 8.974C119.284 8.722 118.744 8.596 118.036 8.596H115.138V16.804ZM126.004 19V6.4H131.458C132.586 6.4 133.558 6.586 134.374 6.958C135.19 7.318 135.82 7.84 136.264 8.524C136.708 9.208 136.93 10.024 136.93 10.972C136.93 11.908 136.708 12.718 136.264 13.402C135.82 14.074 135.19 14.59 134.374 14.95C133.558 15.31 132.586 15.49 131.458 15.49H127.624L128.92 14.212V19H126.004ZM134.014 19L130.864 14.428H133.978L137.164 19H134.014ZM128.92 14.536L127.624 13.168H131.296C132.196 13.168 132.868 12.976 133.312 12.592C133.756 12.196 133.978 11.656 133.978 10.972C133.978 10.276 133.756 9.736 133.312 9.352C132.868 8.968 132.196 8.776 131.296 8.776H127.624L128.92 7.39V14.536ZM139.24 19V6.4H142.156V19H139.24ZM145.146 19V6.4H150.87C152.238 6.4 153.444 6.664 154.488 7.192C155.532 7.708 156.348 8.434 156.936 9.37C157.524 10.306 157.818 11.416 157.818 12.7C157.818 13.972 157.524 15.082 156.936 16.03C156.348 16.966 155.532 17.698 154.488 18.226C153.444 18.742 152.238 19 150.87 19H145.146ZM148.062 16.606H150.726C151.566 16.606 152.292 16.45 152.904 16.138C153.528 15.814 154.008 15.358 154.344 14.77C154.692 14.182 154.866 13.492 154.866 12.7C154.866 11.896 154.692 11.206 154.344 10.63C154.008 10.042 153.528 9.592 152.904 9.28C152.292 8.956 151.566 8.794 150.726 8.794H148.062V16.606ZM166.101 19.216C165.105 19.216 164.187 19.06 163.347 18.748C162.519 18.424 161.793 17.968 161.169 17.38C160.557 16.792 160.077 16.102 159.729 15.31C159.393 14.518 159.225 13.648 159.225 12.7C159.225 11.752 159.393 10.882 159.729 10.09C160.077 9.298 160.563 8.608 161.187 8.02C161.811 7.432 162.543 6.982 163.383 6.67C164.223 6.346 165.147 6.184 166.155 6.184C167.271 6.184 168.273 6.37 169.161 6.742C170.061 7.114 170.817 7.654 171.429 8.362L169.557 10.09C169.101 9.61 168.603 9.256 168.063 9.028C167.523 8.788 166.935 8.668 166.299 8.668C165.687 8.668 165.129 8.764 164.625 8.956C164.121 9.148 163.683 9.424 163.311 9.784C162.951 10.144 162.669 10.57 162.465 11.062C162.273 11.554 162.177 12.1 162.177 12.7C162.177 13.288 162.273 13.828 162.465 14.32C162.669 14.812 162.951 15.244 163.311 15.616C163.683 15.976 164.115 16.252 164.607 16.444C165.111 16.636 165.663 16.732 166.263 16.732C166.839 16.732 167.397 16.642 167.937 16.462C168.489 16.27 169.023 15.952 169.539 15.508L171.195 17.614C170.511 18.13 169.713 18.526 168.801 18.802C167.901 19.078 167.001 19.216 166.101 19.216ZM168.531 17.236V12.502H171.195V17.614L168.531 17.236ZM176.586 11.476H182.652V13.744H176.586V11.476ZM176.802 16.66H183.66V19H173.904V6.4H183.426V8.74H176.802V16.66Z" fill="#FEFEFE"/>
<path d="M66.852 47.084C66.1147 47.084 65.4333 46.9627 64.808 46.72C64.1827 46.468 63.6413 46.118 63.184 45.67C62.7267 45.222 62.3673 44.6947 62.106 44.088C61.854 43.4813 61.728 42.8187 61.728 42.1C61.728 41.3813 61.854 40.7187 62.106 40.112C62.3673 39.5053 62.7267 38.978 63.184 38.53C63.6507 38.082 64.1967 37.7367 64.822 37.494C65.4473 37.242 66.1287 37.116 66.866 37.116C67.5753 37.116 68.2427 37.2373 68.868 37.48C69.4933 37.7133 70.0207 38.068 70.45 38.544L69.792 39.202C69.3907 38.7913 68.9473 38.4973 68.462 38.32C67.9767 38.1333 67.454 38.04 66.894 38.04C66.306 38.04 65.76 38.1427 65.256 38.348C64.752 38.544 64.3133 38.8287 63.94 39.202C63.5667 39.566 63.2727 39.9953 63.058 40.49C62.8527 40.9753 62.75 41.512 62.75 42.1C62.75 42.688 62.8527 43.2293 63.058 43.724C63.2727 44.2093 63.5667 44.6387 63.94 45.012C64.3133 45.376 64.752 45.6607 65.256 45.866C65.76 46.062 66.306 46.16 66.894 46.16C67.454 46.16 67.9767 46.0667 68.462 45.88C68.9473 45.6933 69.3907 45.3947 69.792 44.984L70.45 45.642C70.0207 46.118 69.4933 46.4773 68.868 46.72C68.2427 46.9627 67.5707 47.084 66.852 47.084ZM80.6066 47.084C79.8692 47.084 79.1832 46.9627 78.5486 46.72C77.9232 46.468 77.3772 46.118 76.9106 45.67C76.4532 45.2127 76.0939 44.6853 75.8326 44.088C75.5806 43.4813 75.4546 42.8187 75.4546 42.1C75.4546 41.3813 75.5806 40.7233 75.8326 40.126C76.0939 39.5193 76.4532 38.992 76.9106 38.544C77.3772 38.0867 77.9232 37.7367 78.5486 37.494C79.1739 37.242 79.8599 37.116 80.6066 37.116C81.3439 37.116 82.0252 37.242 82.6506 37.494C83.2759 37.7367 83.8172 38.082 84.2746 38.53C84.7412 38.978 85.1006 39.5053 85.3526 40.112C85.6139 40.7187 85.7446 41.3813 85.7446 42.1C85.7446 42.8187 85.6139 43.4813 85.3526 44.088C85.1006 44.6947 84.7412 45.222 84.2746 45.67C83.8172 46.118 83.2759 46.468 82.6506 46.72C82.0252 46.9627 81.3439 47.084 80.6066 47.084ZM80.6066 46.16C81.1946 46.16 81.7359 46.062 82.2306 45.866C82.7346 45.6607 83.1686 45.376 83.5326 45.012C83.9059 44.6387 84.1952 44.2093 84.4006 43.724C84.6059 43.2293 84.7086 42.688 84.7086 42.1C84.7086 41.512 84.6059 40.9753 84.4006 40.49C84.1952 39.9953 83.9059 39.566 83.5326 39.202C83.1686 38.8287 82.7346 38.544 82.2306 38.348C81.7359 38.1427 81.1946 38.04 80.6066 38.04C80.0186 38.04 79.4726 38.1427 78.9686 38.348C78.4646 38.544 78.0259 38.8287 77.6526 39.202C77.2886 39.566 76.9992 39.9953 76.7846 40.49C76.5792 40.9753 76.4766 41.512 76.4766 42.1C76.4766 42.6787 76.5792 43.2153 76.7846 43.71C76.9992 44.2047 77.2886 44.6387 77.6526 45.012C78.0259 45.376 78.4646 45.6607 78.9686 45.866C79.4726 46.062 80.0186 46.16 80.6066 46.16ZM91.7308 47V37.2H92.5848L99.3468 45.712H98.8988V37.2H99.9208V47H99.0668L92.3188 38.488H92.7668V47H91.7308ZM109.486 47.084C108.758 47.084 108.058 46.9673 107.386 46.734C106.723 46.4913 106.21 46.1833 105.846 45.81L106.252 45.012C106.597 45.348 107.059 45.6327 107.638 45.866C108.226 46.09 108.842 46.202 109.486 46.202C110.102 46.202 110.601 46.1273 110.984 45.978C111.376 45.8193 111.66 45.6093 111.838 45.348C112.024 45.0867 112.118 44.7973 112.118 44.48C112.118 44.0973 112.006 43.7893 111.782 43.556C111.567 43.3227 111.282 43.1407 110.928 43.01C110.573 42.87 110.181 42.7487 109.752 42.646C109.322 42.5433 108.893 42.436 108.464 42.324C108.034 42.2027 107.638 42.044 107.274 41.848C106.919 41.652 106.63 41.3953 106.406 41.078C106.191 40.7513 106.084 40.3267 106.084 39.804C106.084 39.3187 106.21 38.8753 106.462 38.474C106.723 38.0633 107.12 37.7367 107.652 37.494C108.184 37.242 108.865 37.116 109.696 37.116C110.246 37.116 110.792 37.1953 111.334 37.354C111.875 37.5033 112.342 37.7133 112.734 37.984L112.383 38.81C111.964 38.53 111.516 38.3247 111.04 38.194C110.573 38.0633 110.12 37.998 109.682 37.998C109.094 37.998 108.608 38.0773 108.226 38.236C107.843 38.3947 107.558 38.6093 107.372 38.88C107.194 39.1413 107.106 39.44 107.106 39.776C107.106 40.1587 107.213 40.4667 107.428 40.7C107.652 40.9333 107.941 41.1153 108.296 41.246C108.66 41.3767 109.056 41.4933 109.486 41.596C109.915 41.6987 110.34 41.8107 110.76 41.932C111.189 42.0533 111.581 42.212 111.936 42.408C112.3 42.5947 112.589 42.8467 112.804 43.164C113.028 43.4813 113.14 43.8967 113.14 44.41C113.14 44.886 113.009 45.3293 112.748 45.74C112.486 46.1413 112.085 46.468 111.544 46.72C111.012 46.9627 110.326 47.084 109.486 47.084ZM123.009 47.084C121.758 47.084 120.774 46.7247 120.055 46.006C119.336 45.2873 118.977 44.2233 118.977 42.814V37.2H120.013V42.772C120.013 43.9293 120.274 44.7833 120.797 45.334C121.32 45.8847 122.057 46.16 123.009 46.16C123.97 46.16 124.712 45.8847 125.235 45.334C125.758 44.7833 126.019 43.9293 126.019 42.772V37.2H127.027V42.814C127.027 44.2233 126.668 45.2873 125.949 46.006C125.24 46.7247 124.26 47.084 123.009 47.084ZM133.813 47V37.2H134.849V46.104H140.337V47H133.813ZM147.625 47V38.096H144.181V37.2H152.105V38.096H148.661V47H147.625ZM157.424 47V37.2H158.46V47H157.424ZM165.313 47V37.2H166.167L172.929 45.712H172.481V37.2H173.503V47H172.649L165.901 38.488H166.349V47H165.313ZM184.664 47.084C183.917 47.084 183.226 46.9627 182.592 46.72C181.966 46.468 181.42 46.118 180.954 45.67C180.496 45.222 180.137 44.6947 179.876 44.088C179.624 43.4813 179.498 42.8187 179.498 42.1C179.498 41.3813 179.624 40.7187 179.876 40.112C180.137 39.5053 180.501 38.978 180.968 38.53C181.434 38.082 181.98 37.7367 182.606 37.494C183.24 37.242 183.931 37.116 184.678 37.116C185.424 37.116 186.106 37.2327 186.722 37.466C187.347 37.6993 187.879 38.054 188.318 38.53L187.674 39.188C187.263 38.7773 186.81 38.4833 186.316 38.306C185.821 38.1287 185.289 38.04 184.72 38.04C184.113 38.04 183.553 38.1427 183.04 38.348C182.536 38.544 182.092 38.8287 181.71 39.202C181.336 39.566 181.042 39.9953 180.828 40.49C180.622 40.9753 180.52 41.512 180.52 42.1C180.52 42.6787 180.622 43.2153 180.828 43.71C181.042 44.2047 181.336 44.6387 181.71 45.012C182.092 45.376 182.536 45.6607 183.04 45.866C183.553 46.062 184.108 46.16 184.706 46.16C185.266 46.16 185.793 46.076 186.288 45.908C186.792 45.74 187.254 45.4553 187.674 45.054L188.262 45.838C187.795 46.2487 187.249 46.5613 186.624 46.776C185.998 46.9813 185.345 47.084 184.664 47.084ZM187.268 45.712V42.1H188.262V45.838L187.268 45.712Z" fill="#FEFEFE"/>
<path fill-rule="evenodd" clip-rule="evenodd" d="M25 0C38.8071 0 50 11.1929 50 25C50 31.617 47.4282 37.6323 43.2309 42.1038C42.9079 42.3428 42.6893 42.0833 42.6893 42.0833L39.4317 39.4696C39.4317 39.4696 37.5204 38.1073 35.5302 36.8277V13.1817C35.5302 12.8484 35.2575 12.5755 34.9242 12.5755H14.6591C14.3258 12.5755 14.053 12.8482 14.053 13.1817V28.6088C11.6484 28.2383 9.96189 28.0056 7.46212 27.8028C5.27013 27.6252 1.64187 27.7948 0.164294 27.8774C0.0558788 26.9332 0 25.9732 0 25C0 11.1929 11.1929 0 25 0Z" fill="#0F4FF7"/>
<path fill-rule="evenodd" clip-rule="evenodd" d="M30.2288 49.4506C28.5423 49.8096 26.7935 50 25 50C22.9913 50 21.0381 49.7621 19.1667 49.3143V37.7579C21.2531 39.2043 23.0263 40.5011 23.4469 40.8713C24.394 41.7046 26.2499 43.75 27.803 45.644C29.356 47.5379 30.1136 48.9016 30.1136 48.9016C30.1136 48.9016 30.2519 49.218 30.2286 49.4508L30.2288 49.4506ZM14.0151 47.462C6.96708 44.0085 1.7829 37.3367 0.37973 29.3609C1.40983 29.4493 3.06035 29.7035 4.99997 30.4168C8.29555 31.629 9.09105 31.7805 11.8939 33.144C12.4402 33.4098 13.1768 33.8342 14.0151 34.3509V47.462Z" fill="#0F4FF7"/>
<path fill-rule="evenodd" clip-rule="evenodd" d="M24.7918 18.2954C27.8648 18.2954 30.379 20.8096 30.379 23.8824V34.0142C30.379 34.0142 29.3184 33.409 26.5911 32.3106C23.8639 31.212 22.6138 30.7196 22.6138 30.7196V40.2206C21.8165 39.6251 20.5805 38.7383 19.2048 37.7842V23.8824C19.2048 20.8096 21.719 18.2954 24.792 18.2954H24.7918Z" fill="#FEFEFE"/>
</svg>
