<svg width="51" height="50" viewBox="0 0 51 50" fill="none" xmlns="http://www.w3.org/2000/svg">
<path fill-rule="evenodd" clip-rule="evenodd" d="M37.3787 0.999982C37.5653 0.70028 37.8366 0.462626 38.1583 0.317055C38.4799 0.171484 38.8375 0.12453 39.1858 0.182125L48.368 1.71427C48.8348 1.79214 49.2517 2.05218 49.5269 2.43725C49.8022 2.82231 49.9133 3.3009 49.8358 3.76784L48.3073 12.9536C48.2489 13.3018 48.0887 13.6249 47.8468 13.882C47.6049 14.1392 47.2922 14.3189 46.9482 14.3984C46.6042 14.4779 46.2444 14.4536 45.9141 14.3287C45.5839 14.2037 45.2982 13.9837 45.093 13.6964L42.6144 10.2321L29.8501 18.3893C29.3058 18.7376 28.6539 18.8774 28.0146 18.7829C27.3753 18.6883 26.7918 18.3659 26.3715 17.875L19.2537 9.55355L5.94297 16.3928C5.31119 16.7177 4.57622 16.7783 3.89975 16.5613C3.22328 16.3443 2.66072 15.8675 2.33583 15.2357C2.01094 14.6039 1.95033 13.8689 2.16734 13.1925C2.38434 12.516 2.86119 11.9534 3.49297 11.6286L18.6894 3.81784C19.2259 3.54222 19.8397 3.45574 20.4315 3.57241C21.0233 3.68908 21.5584 4.00207 21.9501 4.4607L28.9287 12.6214L39.5001 5.86427L37.4394 2.98213C37.2345 2.69472 37.1194 2.35305 37.1086 2.00026C37.0978 1.64747 37.1918 1.29939 37.3787 0.999982ZM14.0001 18.5357L3.63583 24.4643C3.22639 24.6981 2.88594 25.036 2.6489 25.4436C2.41185 25.8512 2.28661 26.3142 2.28583 26.7857V47.3214C2.28583 48.8 3.48583 50 4.9644 50H14.0001V18.5357ZM18.4644 50H31.5644V25.6714L25.6751 28.6143L19.7894 18.3143C19.4915 17.791 19.026 17.3833 18.468 17.1571L18.4644 50ZM46.0358 50H36.0287V23.4393L44.8394 19.0321C45.2478 18.8283 45.7015 18.7321 46.1574 18.7528C46.6134 18.7736 47.0565 18.9104 47.4447 19.1505C47.8329 19.3906 48.1533 19.7259 48.3755 20.1246C48.5977 20.5233 48.7144 20.9721 48.7144 21.4286V47.3214C48.7144 48.0318 48.4322 48.7131 47.9299 49.2154C47.4275 49.7178 46.7462 50 46.0358 50Z" fill="#6D6D6D"/>
</svg>
