<svg width="51" height="50" viewBox="0 0 51 50" fill="none" xmlns="http://www.w3.org/2000/svg">
<g clip-path="url(#clip0_243_67)">
<path fill-rule="evenodd" clip-rule="evenodd" d="M23.8821 36.6536L13.8464 26.6178C14.95 24.7714 16.05 22.8607 17.1393 20.9607C20.7678 14.6536 24.3107 8.49641 27.6321 5.29284C36.6464 -3.72144 48.9928 1.50713 48.9928 1.50713C48.9928 1.50713 54.2178 13.8536 45.2071 22.8678C42.0285 26.1607 35.9678 29.6536 29.7071 33.2536C27.7571 34.3786 25.7893 35.5107 23.8821 36.6536ZM31.525 13.325C31.525 11.8265 32.1202 10.3894 33.1798 9.32983C34.2394 8.27025 35.6765 7.67498 37.175 7.67498C38.6734 7.67498 40.1105 8.27025 41.1701 9.32983C42.2297 10.3894 42.825 11.8265 42.825 13.325C42.7879 14.7984 42.1766 16.199 41.1214 17.228C40.0662 18.257 38.6506 18.8329 37.1768 18.8329C35.7029 18.8329 34.2873 18.257 33.2321 17.228C32.1769 16.199 31.562 14.7984 31.525 13.325ZM16.9178 12.4964C11.8535 11.15 7.09997 13.6428 2.88211 17.5107C2.6876 17.6939 2.53862 17.9201 2.44707 18.1712C2.35551 18.4222 2.32391 18.6912 2.35479 18.9566C2.38567 19.222 2.47818 19.4766 2.62492 19.6999C2.77167 19.9232 2.96859 20.1092 3.19997 20.2428L10.0035 24.3428L10.0107 24.3286C10.9928 22.6857 12.0893 20.7821 13.2035 18.8536C14.4714 16.65 15.7607 14.4143 16.9178 12.4964ZM26.1571 40.4964L30.2571 47.3C30.3911 47.5311 30.5773 47.7277 30.8008 47.8741C31.0242 48.0205 31.2788 48.1127 31.5443 48.1432C31.8097 48.1737 32.0786 48.1418 32.3294 48.05C32.5803 47.9581 32.8063 47.8089 32.9893 47.6143C36.8571 43.4 39.3535 38.6428 38.0035 33.5786C36.1393 34.7 34.1821 35.8286 32.2428 36.9464L31.9464 37.1178C29.9893 38.2464 28.05 39.3607 26.175 40.4857L26.1571 40.4964ZM9.86425 33.3678C11.3077 33.3423 12.725 33.7547 13.9294 34.5507C15.1338 35.3468 16.0687 36.4891 16.6109 37.8271C17.153 39.1651 17.277 40.636 16.9665 42.0459C16.656 43.4558 15.9255 44.7385 14.8714 45.725C14.0785 46.4821 12.8393 47.075 11.6928 47.5321C10.4066 48.0269 9.0953 48.4537 7.76425 48.8107C6.45354 49.1678 5.20354 49.4536 4.25711 49.6428C3.85919 49.7244 3.45903 49.7947 3.05711 49.8536L2.58211 49.9C2.34351 49.9215 2.10303 49.8948 1.87497 49.8214C1.53977 49.7238 1.24053 49.5301 1.01425 49.2643C0.819919 49.0392 0.684881 48.7691 0.621397 48.4786C0.576219 48.2723 0.561778 48.0605 0.57854 47.85C0.589254 47.7071 0.610682 47.5428 0.632111 47.3928C0.67854 47.0786 0.749968 46.6678 0.846397 46.2C1.03568 45.2571 1.32854 44.0143 1.68568 42.7107C2.04283 41.4107 2.47854 40.0178 2.96783 38.8C3.42497 37.6536 4.01783 36.4178 4.77497 35.6286C5.42866 34.9301 6.21599 34.3701 7.09022 33.9818C7.96446 33.5935 8.90779 33.3847 9.86425 33.3678Z" fill="#6D6D6D"/>
</g>
<defs>
<clipPath id="clip0_243_67">
<rect width="50" height="50" fill="white" transform="translate(0.5)"/>
</clipPath>
</defs>
</svg>
