<svg width="45" height="43" viewBox="0 0 45 43" fill="none" xmlns="http://www.w3.org/2000/svg">
<path fill-rule="evenodd" clip-rule="evenodd" d="M40.3388 0.294176C40.8921 0.0336989 41.4976 -0.056138 42.0925 0.0340151C42.6874 0.124168 43.2497 0.391016 43.7211 0.806784C44.1925 1.22255 44.5556 1.77204 44.7727 2.39806C44.9898 3.02407 45.0529 3.70373 44.9555 4.36629L39.8775 38.8189C39.385 42.1422 36.1251 44.0481 33.4003 42.3927C31.121 41.0078 27.7358 38.874 24.6908 36.6476C23.1683 35.5332 18.5046 31.9645 19.0778 29.425C19.5703 27.2537 27.4066 19.0945 31.8845 14.2435C33.6421 12.3377 32.8405 11.2383 30.7651 12.9913C25.611 17.3439 17.3359 23.963 14.5999 25.8262C12.1863 27.4691 10.928 27.7496 9.42346 27.4691C6.67851 26.9582 4.13284 26.1668 2.0551 25.2027C-0.752535 23.9004 -0.61596 19.5828 2.05286 18.3257L40.3388 0.294176Z" fill="#1E1E1E"/>
</svg>
